# xmcd
#
# Track frame offsets: 
#        150
#        17079
#        29811
#        41697
#        57055
#        72373
#        91072
#        103144
#        118211
#        130116
#
# Disc length: 1977 seconds
#
# Revision: 1
# Processed by: cddbd v1.5.2PL0 Copyright (c) Steve Scherf et al.
# Submitted via: ExactAudioCopyFreeDBPlugin 1.0
#
DISCID=8907b70a
DTITLE=The Boxmasters - Christmas Cheer
DYEAR=2008
DGENRE=Christmas
TTITLE0=My Dreams Of Christmas
TTITLE1=Silver Bells
TTITLE2=Slower Than Christmas
TTITLE3=Rudolph The Red-Nosed Reindeer
TTITLE4=We Three Kings Of Orient Are
TTITLE5=I Won't Be Home For Christmas
TTITLE6=The Christmas Song (Chestnuts Roasting On An Open Fire)
TTITLE7=Christmas In Prison
TTITLE8=Blue Christmas
TTITLE9=Happy X-Mas (War Is Over)
EXTD=
EXTT0=
EXTT1=
EXTT2=
EXTT3=
EXTT4=
EXTT5=
EXTT6=
EXTT7=
EXTT8=
EXTT9=
PLAYORDER=
